<svg xmlns="http://www.w3.org/2000/svg" viewBox="0 0 220 150" width="220" height="150">
  <defs>
    <linearGradient id="sk_body" x1="0" y1="0" x2="0" y2="1">
      <stop offset="0" stop-color="#8296a8"/><stop offset="1" stop-color="#465a6d"/>
    </linearGradient>
    <radialGradient id="sk_water" cx="50%" cy="45%" r="60%">
      <stop offset="0" stop-color="#dff1f7"/><stop offset="1" stop-color="#bfe3ee"/>
    </radialGradient>
  </defs>
  <circle cx="110" cy="75" r="72" fill="url(#sk_water)"/>
  <!-- tail (direita) -->
  <path d="M198 75 L164 54 L159 75 L164 96 Z" fill="#3f4f5e"/>
  <!-- corpo -->
  <path d="M164 75 Q108 40 30 70 Q17 74 30 81 Q96 101 141 95 Q158 92 164 75 Z" fill="url(#sk_body)"/>
  <!-- barriga -->
  <path d="M44 85 Q100 99 150 84 Q100 97 60 93 Q50 91 44 85 Z" fill="#eef2f5"/>
  <!-- dorsal -->
  <path d="M104 50 L120 18 L136 56 Z" fill="#3f4f5e"/>
  <!-- peitoral -->
  <path d="M96 90 L82 120 L114 92 Z" fill="#394856"/>
  <!-- focinho / boca -->
  <path d="M30 71 Q15 74 30 81 Z" fill="#394856"/>
  <path d="M27 80 l4 5 l4 -5 l4 5 l4 -5 l4 5 l4 -5" fill="none" stroke="#ffffff" stroke-width="2" stroke-linejoin="round"/>
  <!-- guelras -->
  <path d="M62 65 q4 12 0 25 M70 65 q4 12 0 25 M78 65 q4 12 0 25" stroke="#33404d" stroke-width="2" fill="none"/>
  <!-- olho -->
  <circle cx="46" cy="71" r="3.6" fill="#0e151d"/>
  <circle cx="47.2" cy="69.8" r="1.1" fill="#ffffff"/>
</svg>
